G04 MADE WITH FRITZING*
G04 WWW.FRITZING.ORG*
G04 DOUBLE SIDED*
G04 HOLES PLATED*
G04 CONTOUR ON CENTER OF CONTOUR VECTOR*
%ASAXBY*%
%FSLAX23Y23*%
%MOIN*%
%OFA0B0*%
%SFA1.0B1.0*%
%ADD10C,0.085000*%
%ADD11C,0.092000*%
%ADD12C,0.090000*%
%ADD13C,0.096614*%
%ADD14R,0.085000X0.085000*%
%ADD15R,0.092000X0.092000*%
%ADD16R,0.090000X0.090000*%
%LNMASK1*%
G90*
G70*
G54D10*
X1599Y1151D03*
X1599Y1451D03*
X1699Y1151D03*
X1699Y1451D03*
X1799Y1151D03*
X1799Y1451D03*
X499Y551D03*
X499Y251D03*
X399Y551D03*
X399Y251D03*
X299Y551D03*
X299Y251D03*
G54D11*
X999Y351D03*
X899Y351D03*
X799Y351D03*
X399Y1251D03*
X399Y1351D03*
X399Y1451D03*
X399Y951D03*
X399Y851D03*
X399Y751D03*
X999Y1551D03*
X899Y1551D03*
X799Y1551D03*
G54D12*
X799Y1251D03*
X799Y1051D03*
X799Y851D03*
X799Y651D03*
G54D13*
X99Y151D03*
X1899Y151D03*
X1899Y1651D03*
X99Y1651D03*
G54D12*
X1299Y351D03*
X1299Y151D03*
G54D10*
X1699Y1651D03*
X1299Y1651D03*
X1799Y951D03*
X1799Y551D03*
X599Y1051D03*
X599Y1451D03*
X699Y151D03*
X1099Y151D03*
G54D14*
X1599Y1151D03*
X499Y551D03*
G54D15*
X999Y351D03*
X399Y1251D03*
X399Y951D03*
X999Y1551D03*
G54D16*
X799Y1251D03*
X1299Y351D03*
G04 End of Mask1*
M02*