; NON-PLATED HOLES START AT T1
; THROUGH (PLATED) HOLES START AT T100
M48
INCH
T1C0.086614
T100C0.042000
T101C0.040000
T102C0.035000
%
T1
X018985Y016507
X000985Y001507
X018985Y001507
X000985Y016507
T100
X007985Y015507
X003985Y014507
X008985Y003507
X003985Y008507
X003985Y009507
X003985Y013507
X008985Y015507
X003985Y012507
X009985Y003507
X009985Y015507
X007985Y003507
X003985Y007507
T101
X012985Y001507
X012985Y003507
X007985Y008507
X007985Y006507
X007985Y010507
X007985Y012507
T102
X016985Y011507
X012985Y016507
X017985Y005507
X002985Y002507
X003985Y005507
X004985Y002507
X006985Y001507
X017985Y009507
X005985Y014507
X015985Y011507
X004985Y005507
X016985Y014507
X002985Y005507
X005985Y010507
X010985Y001507
X003985Y002507
X017985Y011507
X017985Y014507
X015985Y014507
X016985Y016507
T00
M30
