G04 MADE WITH FRITZING*
G04 WWW.FRITZING.ORG*
G04 DOUBLE SIDED*
G04 HOLES PLATED*
G04 CONTOUR ON CENTER OF CONTOUR VECTOR*
%ASAXBY*%
%FSLAX23Y23*%
%MOIN*%
%OFA0B0*%
%SFA1.0B1.0*%
%ADD10C,0.075000*%
%ADD11C,0.082000*%
%ADD12C,0.080000*%
%ADD13R,0.075000X0.075000*%
%ADD14R,0.082000X0.082000*%
%ADD15R,0.080000X0.080000*%
%ADD16C,0.048000*%
%ADD17C,0.024000*%
%LNCOPPER1*%
G90*
G70*
G54D10*
X1599Y1151D03*
X1599Y1451D03*
X1699Y1151D03*
X1699Y1451D03*
X1799Y1151D03*
X1799Y1451D03*
X499Y551D03*
X499Y251D03*
X399Y551D03*
X399Y251D03*
X299Y551D03*
X299Y251D03*
G54D11*
X999Y351D03*
X899Y351D03*
X799Y351D03*
X399Y1251D03*
X399Y1351D03*
X399Y1451D03*
X399Y951D03*
X399Y851D03*
X399Y751D03*
X999Y1551D03*
X899Y1551D03*
X799Y1551D03*
G54D12*
X799Y1251D03*
X799Y1051D03*
X799Y851D03*
X799Y651D03*
X1299Y351D03*
X1299Y151D03*
G54D10*
X1699Y1651D03*
X1299Y1651D03*
X1799Y951D03*
X1799Y551D03*
X599Y1051D03*
X599Y1451D03*
X699Y151D03*
X1099Y151D03*
G54D13*
X1599Y1151D03*
X499Y551D03*
G54D14*
X999Y351D03*
X399Y1251D03*
X399Y951D03*
X999Y1551D03*
G54D15*
X799Y1251D03*
X1299Y351D03*
G54D16*
X756Y851D02*
X698Y852D01*
D02*
X698Y852D02*
X698Y1150D01*
D02*
X499Y1351D02*
X442Y1351D01*
D02*
X698Y1150D02*
X499Y1351D01*
D02*
X799Y1293D02*
X799Y1508D01*
G54D17*
D02*
X421Y1228D02*
X578Y1071D01*
D02*
X382Y274D02*
X228Y492D01*
X228Y492D02*
X228Y804D01*
X228Y804D02*
X374Y930D01*
D02*
X1682Y1127D02*
X1092Y276D01*
X1092Y276D02*
X852Y276D01*
X852Y276D02*
X817Y325D01*
G54D16*
D02*
X768Y658D02*
X430Y743D01*
D02*
X799Y383D02*
X799Y620D01*
D02*
X767Y851D02*
X431Y851D01*
D02*
X570Y1451D02*
X431Y1451D01*
D02*
X777Y1273D02*
X619Y1431D01*
G54D17*
D02*
X799Y1583D02*
X799Y1650D01*
D02*
X799Y1650D02*
X1270Y1651D01*
G04 End of Copper1*
M02*