G04 MADE WITH FRITZING*
G04 WWW.FRITZING.ORG*
G04 DOUBLE SIDED*
G04 HOLES PLATED*
G04 CONTOUR ON CENTER OF CONTOUR VECTOR*
%ASAXBY*%
%FSLAX23Y23*%
%MOIN*%
%OFA0B0*%
%SFA1.0B1.0*%
%ADD10C,0.075000*%
%ADD11C,0.082000*%
%ADD12C,0.080000*%
%ADD13R,0.075000X0.075000*%
%ADD14R,0.082000X0.082000*%
%ADD15R,0.080000X0.080000*%
%ADD16C,0.024000*%
%ADD17C,0.048000*%
%LNCOPPER0*%
G90*
G70*
G54D10*
X1599Y1151D03*
X1599Y1451D03*
X1699Y1151D03*
X1699Y1451D03*
X1799Y1151D03*
X1799Y1451D03*
X499Y551D03*
X499Y251D03*
X399Y551D03*
X399Y251D03*
X299Y551D03*
X299Y251D03*
G54D11*
X399Y951D03*
X399Y851D03*
X399Y751D03*
X999Y351D03*
X899Y351D03*
X799Y351D03*
X999Y1551D03*
X899Y1551D03*
X799Y1551D03*
X399Y1251D03*
X399Y1351D03*
X399Y1451D03*
G54D12*
X799Y1251D03*
X799Y1051D03*
X799Y851D03*
X799Y651D03*
X1299Y351D03*
X1299Y151D03*
G54D10*
X1799Y951D03*
X1799Y551D03*
X699Y151D03*
X1099Y151D03*
X1699Y1651D03*
X1299Y1651D03*
X599Y1051D03*
X599Y1451D03*
G54D13*
X1599Y1151D03*
X499Y551D03*
G54D14*
X399Y951D03*
X999Y351D03*
X999Y1551D03*
X399Y1251D03*
G54D15*
X799Y1251D03*
X1299Y351D03*
G54D16*
X308Y278D02*
X389Y524D01*
D02*
X1772Y540D02*
X1327Y362D01*
D02*
X1267Y151D02*
X1127Y151D01*
D02*
X511Y525D02*
X686Y176D01*
D02*
X573Y1038D02*
X427Y965D01*
D02*
X1699Y1479D02*
X1699Y1622D01*
G54D17*
D02*
X899Y383D02*
X898Y950D01*
D02*
X898Y950D02*
X820Y1029D01*
G54D16*
D02*
X1021Y1528D02*
X1198Y1352D01*
D02*
X1198Y1352D02*
X1598Y1352D01*
D02*
X1598Y1352D02*
X1678Y1431D01*
D02*
X999Y383D02*
X999Y1519D01*
D02*
X1708Y1178D02*
X1790Y1424D01*
D02*
X1598Y1051D02*
X1773Y964D01*
D02*
X1598Y1122D02*
X1598Y1051D01*
G54D17*
D02*
X898Y1150D02*
X898Y1508D01*
D02*
X828Y1081D02*
X898Y1150D01*
G54D16*
D02*
X399Y579D02*
X399Y719D01*
G04 End of Copper0*
M02*